<svg id="crypto-com" xmlns="http://www.w3.org/2000/svg" width="777" height="777" viewBox="0 0 777 777">
  <circle id="Ellipse_1" data-name="Ellipse 1" cx="388.5" cy="388.5" r="388.5" fill="#103f68"/>
  <path id="Path_1" data-name="Path 1" d="M236.682,5.018,467.836,138.15V405.239L236.949,538.76l-1.87-.461L6.5,405.239V138.15L235.08,5.018h1.6ZM235.93,32.65,30.781,152.111V391.278L235.905,510.715l25.058-14.5L443.555,391.2V152.16L260.963,46.538ZM62.564,290.269l60.726-45.405,53.685,34.285v61.673L217.6,379.963l-.024,18.356-39.141,36.664H145.386l-82.8-144.714Zm191.892,108.1-.073-18.453,40.476-39.092V279.149l53.1-34.722,60.6,45.867L326.182,434.57H293.548ZM196.91,279.149l-19.765-51.742H294.616L275.24,279.149l5.73,57.837-45.332.1-44.8.073,6.07-58.007Zm38.728-65.923-111.643-.049,20.76-92.753H325.987L347.84,213.3Z" transform="translate(151.326 116.823)" fill="#fff"/>
</svg>
